# xmcd
#
# Track frame offsets:
#	150
#	13632
#	32059
#	46001
#	62629
#	77529
#	92266
#	110226
#	123269
#	139017
#	153627
#	163923
#
# Disc length: 2402 seconds
#
# Revision: 1
# Processed by: cddbd v1.5.1PL0 Copyright (c) Steve Scherf et al.
# Submitted via: audiograbber 1.83.01
#
DISCID=9109600c
DTITLE=Various Artist - Great Country Love Songs, Disc 3
DYEAR=2003
DGENRE=Country
TTITLE0=Emmylou Harris - Pledging My Love
TTITLE1=Little Texas - My Love
TTITLE2=Randy Travis - Forever Together
TTITLE3=Carlene Carter - I Fell In Love
TTITLE4=Michael Martin Murphy - A Long Line Of Love
TTITLE5=George Jones - He Stopped Loving Her Today
TTITLE6=Willie Nelson - Help Me Make It Throught The Night
TTITLE7=T G Sheppard - I'll Be Coming Back For More
TTITLE8=The Nitty Gritty Dirt Band - I Love Only You
TTITLE9=The Forester Sisters - I Fell In Love Again Last Night
TTITLE10=Gail Davies - I'll Be There (If You Ever Want Me)
TTITLE11=Johnny Lee - Lookin' For Love
EXTD=Columbia House Compilation CD
EXTT0=
EXTT1=
EXTT2=
EXTT3=
EXTT4=
EXTT5=
EXTT6=
EXTT7=
EXTT8=
EXTT9=
EXTT10=
EXTT11=
PLAYORDER=
